<svg width="149" height="29" viewBox="0 0 149 29" fill="none" xmlns="http://www.w3.org/2000/svg">
<rect width="149" height="29" rx="5" fill="#FFC700" fill-opacity="0.2"/>
<g clip-path="url(#clip0_1_732)">
<path d="M17.3153 7.44399C17.3837 7.27973 17.6163 7.27973 17.6847 7.44399L19.4369 11.6568C19.4657 11.726 19.5308 11.7733 19.6055 11.7793L24.1536 12.1439C24.3309 12.1582 24.4028 12.3795 24.2677 12.4952L20.8026 15.4635C20.7456 15.5123 20.7208 15.5888 20.7382 15.6618L21.7968 20.0999C21.8381 20.2729 21.6498 20.4097 21.498 20.317L17.6043 17.9387C17.5402 17.8996 17.4598 17.8996 17.3957 17.9387L13.502 20.317C13.3502 20.4097 13.1619 20.2729 13.2032 20.0999L14.2618 15.6618C14.2792 15.5888 14.2544 15.5123 14.1974 15.4635L10.7323 12.4952C10.5972 12.3795 10.6691 12.1582 10.8464 12.1439L15.3945 11.7793C15.4692 11.7733 15.5343 11.726 15.5631 11.6568L17.3153 7.44399Z" fill="#FFA800"/>
</g>
<path d="M32.2578 20.2109C30.0078 20.2109 28.3672 18.8359 28.2656 16.8672H29.9375C30.0625 17.9844 31.0156 18.75 32.2734 18.75C33.7031 18.75 34.6875 17.7578 34.6875 16.3516C34.6875 14.9609 33.6953 13.9688 32.2891 13.9688C31.2812 13.9688 30.4766 14.3984 30 15.2266H28.4688L29.0234 8.72656H35.7422V10.2031H30.4375L30.0938 13.7734H30.1328C30.6406 13.0156 31.5781 12.5859 32.6875 12.5859C34.8438 12.5859 36.3984 14.1484 36.3984 16.3047C36.3984 18.6094 34.6953 20.2109 32.2578 20.2109ZM50.4531 20H48.7109V10.25H43.0703V20H41.3125V8.72656H50.4531V20ZM56.7578 11.6484C58.8516 11.6484 60.2188 13.2891 60.2188 15.8906C60.2188 18.4922 58.8594 20.1406 56.7891 20.1406C55.6094 20.1406 54.6719 19.5625 54.2031 18.6484H54.1641V22.7188H52.4766V11.7812H54.1094V13.1953H54.1406C54.625 12.25 55.5703 11.6484 56.7578 11.6484ZM56.3125 18.7109C57.6484 18.7109 58.4844 17.6172 58.4844 15.8906C58.4844 14.1719 57.6484 13.0703 56.3125 13.0703C55.0234 13.0703 54.1562 14.1953 54.1562 15.8906C54.1562 17.6016 55.0234 18.7109 56.3125 18.7109ZM67.1094 17.5859H68.7188C68.4766 19.0859 67.0547 20.1562 65.1719 20.1562C62.7578 20.1562 61.2969 18.5234 61.2969 15.9297C61.2969 13.3516 62.7812 11.6328 65.1094 11.6328C67.3828 11.6328 68.8047 13.2422 68.8047 15.7344V16.3125H63V16.4141C63 17.8438 63.8594 18.7891 65.2109 18.7891C66.1719 18.7891 66.8906 18.3047 67.1094 17.5859ZM65.1016 12.9922C63.9219 12.9922 63.0938 13.8906 63.0156 15.1328H67.1172C67.0781 13.875 66.2812 12.9922 65.1016 12.9922ZM74.0391 20H70.2578V11.7812H73.9922C75.5938 11.7812 76.5625 12.5859 76.5625 13.8984C76.5625 14.75 75.9531 15.5312 75.1641 15.6797V15.7422C76.2266 15.8828 76.9297 16.6172 76.9297 17.6328C76.9297 19.0781 75.8203 20 74.0391 20ZM71.9297 13.0078V15.1953H73.4688C74.4219 15.1953 74.8984 14.8281 74.8984 14.0938C74.8984 13.3984 74.4531 13.0078 73.6406 13.0078H71.9297ZM71.9297 16.375V18.7734H73.7734C74.7188 18.7734 75.2422 18.3516 75.2422 17.5625C75.2422 16.7656 74.6875 16.375 73.5781 16.375H71.9297ZM81.9609 20.1562C79.6094 20.1562 78.0625 18.5391 78.0625 15.8906C78.0625 13.25 79.625 11.6328 81.9609 11.6328C84.3047 11.6328 85.8594 13.25 85.8594 15.8906C85.8594 18.5391 84.3125 20.1562 81.9609 20.1562ZM81.9609 18.7656C83.2891 18.7656 84.1406 17.7188 84.1406 15.8906C84.1406 14.0703 83.2812 13.0234 81.9609 13.0234C80.6484 13.0234 79.7812 14.0703 79.7812 15.8906C79.7812 17.7188 80.6406 18.7656 81.9609 18.7656ZM94.3594 14.6094H92.75C92.5781 13.7344 91.9219 13.0391 90.8203 13.0391C89.5156 13.0391 88.6562 14.125 88.6562 15.8906C88.6562 17.6953 89.5312 18.7422 90.8359 18.7422C91.875 18.7422 92.5547 18.1719 92.7578 17.2188H94.375C94.1953 18.9688 92.7969 20.1562 90.8203 20.1562C88.4688 20.1562 86.9375 18.5469 86.9375 15.8906C86.9375 13.2812 88.4688 11.6328 90.8047 11.6328C92.9219 11.6328 94.2109 12.9922 94.3594 14.6094ZM98.7578 16.9766H98.7188L96.8984 20H95.0703L97.7812 15.8984L95.1094 11.7812H97L98.7969 14.7578H98.8281L100.602 11.7812H102.461L99.7656 15.8438L102.43 20H100.578L98.7578 16.9766ZM107.008 20.1562C104.656 20.1562 103.109 18.5391 103.109 15.8906C103.109 13.25 104.672 11.6328 107.008 11.6328C109.352 11.6328 110.906 13.25 110.906 15.8906C110.906 18.5391 109.359 20.1562 107.008 20.1562ZM107.008 18.7656C108.336 18.7656 109.188 17.7188 109.188 15.8906C109.188 14.0703 108.328 13.0234 107.008 13.0234C105.695 13.0234 104.828 14.0703 104.828 15.8906C104.828 17.7188 105.688 18.7656 107.008 18.7656ZM113.008 22.1562H111.453V18.6641H112.117C112.719 18.2891 112.992 17.2969 113.07 16.1875L113.367 11.7812H119.359V18.6641H120.633V22.1562H119.07V20H113.008V22.1562ZM117.68 18.6641V13.1172H114.82L114.594 16.2578C114.531 17.2266 114.328 18.0703 113.953 18.6016V18.6641H117.68ZM127.164 20V16.4219H123.461V20H121.773V11.7812H123.461V15.0938H127.164V11.7812H128.852V20H127.164ZM134.211 20.1562C131.859 20.1562 130.312 18.5391 130.312 15.8906C130.312 13.25 131.875 11.6328 134.211 11.6328C136.555 11.6328 138.109 13.25 138.109 15.8906C138.109 18.5391 136.562 20.1562 134.211 20.1562ZM134.211 18.7656C135.539 18.7656 136.391 17.7188 136.391 15.8906C136.391 14.0703 135.531 13.0234 134.211 13.0234C132.898 13.0234 132.031 14.0703 132.031 15.8906C132.031 17.7188 132.891 18.7656 134.211 18.7656Z" fill="#FFA800"/>
<defs>
<clipPath id="clip0_1_732">
<rect width="15" height="15" fill="white" transform="translate(10 7)"/>
</clipPath>
</defs>
</svg>
